<svg width="40" height="40" viewBox="0 0 40 40" fill="none" xmlns="http://www.w3.org/2000/svg">
<circle cx="20" cy="20" r="19.5" stroke="white"/>
<path d="M17.0426 19.999L23.0909 13.9576C23.1973 13.8511 23.2817 13.7247 23.3393 13.5856C23.3969 13.4464 23.4266 13.2973 23.4266 13.1467C23.4266 12.9961 23.3969 12.847 23.3393 12.7079C23.2817 12.5688 23.1973 12.4424 23.0909 12.3359C22.9845 12.2294 22.8582 12.1449 22.7192 12.0873C22.5802 12.0297 22.4312 12 22.2807 12C22.1302 12 21.9812 12.0297 21.8422 12.0873C21.7032 12.1449 21.5768 12.2294 21.4704 12.3359L14.6232 19.1882C14.5162 19.2943 14.4313 19.4206 14.3734 19.5598C14.3155 19.699 14.2856 19.8483 14.2856 19.999C14.2856 20.1498 14.3155 20.2991 14.3734 20.4382C14.4313 20.5774 14.5162 20.7037 14.6232 20.8099L21.4704 27.6622C21.5765 27.7692 21.7027 27.8542 21.8418 27.9122C21.9809 27.9701 22.13 28 22.2807 28C22.4313 28 22.5805 27.9701 22.7196 27.9122C22.8586 27.8542 22.9848 27.7692 23.0909 27.6622C23.1979 27.556 23.2828 27.4297 23.3407 27.2905C23.3987 27.1514 23.4285 27.0021 23.4285 26.8513C23.4285 26.7006 23.3987 26.5513 23.3407 26.4121C23.2828 26.273 23.1979 26.1466 23.0909 26.0405L17.0426 19.999Z" fill="white"/>
</svg>
